<?xml version="1.0" encoding="utf-8"?>
<!-- Generator: Adobe Illustrator 23.0.3, SVG Export Plug-In . SVG Version: 6.00 Build 0)  -->
<svg version="1.1" id="Layer_1" xmlns="http://www.w3.org/2000/svg" xmlns:xlink="http://www.w3.org/1999/xlink" x="0px" y="0px"
	 viewBox="0 0 32 32" style="enable-background:new 0 0 32 32;" xml:space="preserve">
<style type="text/css">
	.st0{fill:#C76387;}
</style>
<path class="st0" d="M16,0C7.2,0,0,7.2,0,16s7.2,16,16,16s16-7.2,16-16S24.8,0,16,0z M16.2,24.8c-4.9,0-8.8-4-8.8-8.8s4-8.8,8.8-8.8
	c2.4,0,4.4,0.9,5.9,2.3L19.6,12c-0.9-0.9-2.1-1.3-3.4-1.3c-2.9,0-5.3,2.5-5.3,5.4c0,2.9,2.4,5.4,5.3,5.4c2.6,0,4.4-1.5,4.8-3.6h-4.8
	v-3.4l8.3-0.2c0.1,0.6,0.2,1.2,0.2,1.9C24.7,21.2,21.3,24.8,16.2,24.8z"/>
</svg>
